<svg width="2000" height="2000" viewBox="0 0 2000 2000" fill="none" xmlns="http://www.w3.org/2000/svg">
<rect width="2000" height="2000" fill="#151515"/>
<mask id="mask0_14_17" style="mask-type:luminance" maskUnits="userSpaceOnUse" x="687" y="687" width="627" height="626">
<path d="M687 687H1314V1313H687V687Z" fill="white"/>
</mask>
<g mask="url(#mask0_14_17)">
<path d="M1012.2 1278.28L1002.43 1234.26C1001.46 1234.26 1000.97 1234.26 999.989 1234.26C871.064 1234.26 766.064 1129.11 766.064 1000C766.064 870.889 871.064 765.737 999.989 765.737C1128.92 765.737 1233.92 870.889 1233.92 1000C1233.92 1000.98 1233.92 1002.45 1233.92 1003.42L1276.9 1013.2C1290.57 1016.14 1302.29 1023.97 1310.59 1034.72C1312.06 1023.47 1312.55 1011.74 1312.55 1000C1312.55 827.36 1172.38 687 999.989 687C827.595 687 687.438 827.36 687.438 1000C687.438 1172.64 827.595 1313 999.989 1313C1011.22 1313 1021.97 1312.51 1032.71 1311.53C1022.45 1303.22 1015.13 1291.97 1012.2 1278.28Z" fill="#75E6DA"/>
</g>
<path d="M964.824 1070.42C938.945 1057.71 921.363 1030.81 921.363 1000C921.363 956.471 956.528 921.263 999.989 921.263C1031.24 921.263 1058.11 939.845 1070.81 966.252L1156.27 985.815C1148.95 905.61 1082.04 843.013 999.989 843.013C913.058 843.013 843.223 913.437 843.223 1000C843.223 1081.67 905.248 1148.67 984.848 1156.5L964.824 1070.42Z" fill="#75E6DA"/>
<mask id="mask1_14_17" style="mask-type:luminance" maskUnits="userSpaceOnUse" x="992" y="992" width="320" height="321">
<path d="M992.195 992.392H1311.92V1313H992.195V992.392Z" fill="white"/>
</mask>
<g mask="url(#mask1_14_17)">
<path d="M1209.01 1153.56L1277.87 1084.61C1288.62 1073.85 1283.25 1054.78 1268.11 1051.36L1016.6 994.128C1015.13 993.641 1013.66 993.641 1012.2 993.641C999.989 993.641 990.225 1004.89 993.152 1017.61L1050.3 1269.47C1052.24 1279.25 1061.03 1284.64 1069.34 1284.64C1074.22 1284.64 1079.1 1282.67 1083.01 1278.77L1152.85 1208.83L1244.66 1300.78C1252.48 1308.6 1262.24 1312.51 1272.5 1312.51C1282.75 1312.51 1292.52 1308.6 1300.33 1300.78C1315.48 1285.61 1315.48 1260.67 1300.33 1245.02L1209.01 1153.56Z" fill="#75E6DA"/>
</g>
</svg>
